<svg width="14" height="16" viewBox="0 0 14 16" fill="none" xmlns="http://www.w3.org/2000/svg">
<path d="M6.99931 0C6.44619 0 5.99932 0.446509 5.99932 0.99918V1.59869C3.7181 2.06081 1.99938 4.07791 1.99938 6.49467V7.08169C1.99938 8.54924 1.45876 9.96682 0.48377 11.0659L0.252524 11.3251C-0.00997304 11.6186 -0.0724722 12.0401 0.0869007 12.3992C0.246274 12.7583 0.605644 12.9893 0.999389 12.9893H12.9992C13.393 12.9893 13.7492 12.7583 13.9117 12.3992C14.0742 12.0401 14.0086 11.6186 13.7461 11.3251L13.5149 11.0659C12.5399 9.96682 11.9992 8.55236 11.9992 7.08169V6.49467C11.9992 4.07791 10.2805 2.06081 7.9993 1.59869V0.99918C7.9993 0.446509 7.55243 0 6.99931 0ZM8.41492 15.403C8.78991 15.0283 8.99928 14.5193 8.99928 13.9885H6.99931H4.99934C4.99934 14.5193 5.20871 15.0283 5.5837 15.403C5.9587 15.7777 6.46807 15.9869 6.99931 15.9869C7.53055 15.9869 8.03992 15.7777 8.41492 15.403Z" fill="#34424D"/>
</svg>
